#N canvas 145 273 1513 1227 12;
#X obj 126 346 osc~;
#X obj 194 129 osc~;
#X obj 84 53 inlet;
#X obj 164 52 inlet;
#X obj 267 56 inlet;
#X obj 165 183 *~;
#X text 34 35 carrier;
#X text 158 24 modulator;
#X text 293 22 amount;
#X obj 111 284 +~;
#X obj 120 409 outlet~;
#X obj 147 231 *~;
#X obj 333 377 vline~;
#X obj 433 65 inlet;
#X obj 424 178 + 200;
#X obj 347 167 t f f;
#X obj 419 238 pack f f f;
#X obj 564 83 inlet;
#X text 405 18 attack;
#X text 598 21 release;
#X msg 591 163 1000;
#X obj 620 132 loadbang;
#X obj 362 268 list;
#X obj 314 112 loadbang;
#X msg 311 139 50;
#X obj 280 221 metro 200;
#X msg 274 181 1;
#X obj 927 195 inlet;
#X obj 570 428 osc~;
#X obj 562 469 snapshot~;
#X msg 502 412 1;
#X obj 510 381 loadbang;
#X text 663 178 achaos;
#X obj 449 575 outlet;
#X obj 498 444 metro 50;
#X obj 503 522 expr (($f1 + 1) / 2) * $f2 + 50;
#X obj 831 361 * 10;
#X text 891 169 10 - 1000;
#X text 47 109 4 - 3000 log;
#X text 480 33 0 - 200;
#X obj 528 238 t b f;
#X obj 432 272 bng 15 250 50 0 empty empty empty 17 7 0 10 -262144
-1 -1;
#X text 683 29 0 - 400;
#X obj 262 262 random 20;
#X obj 271 298 > 5;
#X obj 292 329 sel 1;
#X msg 333 326 0 5 \, 1 \$1 5 \, 0.4 20 \$1 \, 0 \$3 \$2;
#X text 159 73 4 - 200 log;
#X text 328 53 200 - 2000 log;
#X connect 0 0 10 0;
#X connect 1 0 5 0;
#X connect 2 0 9 1;
#X connect 3 0 1 0;
#X connect 4 0 5 1;
#X connect 5 0 11 0;
#X connect 9 0 0 0;
#X connect 11 0 9 0;
#X connect 12 0 11 1;
#X connect 13 0 15 0;
#X connect 14 0 16 1;
#X connect 15 0 16 0;
#X connect 15 1 14 0;
#X connect 16 0 22 1;
#X connect 16 0 41 0;
#X connect 17 0 40 0;
#X connect 20 0 40 0;
#X connect 21 0 20 0;
#X connect 22 0 46 0;
#X connect 23 0 24 0;
#X connect 23 0 26 0;
#X connect 24 0 15 0;
#X connect 25 0 43 0;
#X connect 26 0 25 0;
#X connect 27 0 28 0;
#X connect 27 0 36 0;
#X connect 28 0 29 0;
#X connect 29 0 35 0;
#X connect 30 0 34 0;
#X connect 31 0 30 0;
#X connect 34 0 29 0;
#X connect 35 0 33 0;
#X connect 35 0 25 1;
#X connect 36 0 35 1;
#X connect 40 0 16 0;
#X connect 40 1 16 2;
#X connect 43 0 44 0;
#X connect 44 0 45 0;
#X connect 45 0 22 0;
#X connect 46 0 12 0;
