#N canvas 961 539 450 300 12;
#X obj 149 230 osc~;
#X obj 194 129 osc~;
#X obj 84 53 inlet;
#X obj 164 52 inlet;
#X obj 267 56 inlet;
#X obj 143 166 *~;
#X text 34 35 carrier;
#X text 158 24 modulator;
#X text 293 22 amount;
#X obj 149 199 +~;
#X obj 239 265 outlet~;
#X connect 0 0 10 0;
#X connect 1 0 5 0;
#X connect 2 0 9 1;
#X connect 3 0 1 0;
#X connect 4 0 5 1;
#X connect 5 0 9 0;
#X connect 9 0 0 0;
