#N canvas 1170 434 450 300 12;
#X obj 80 46 inlet;
#X obj 176 103 f \$1;
#X obj 288 98 f \$2;
#X obj 185 53 loadbang;
#X obj 333 43 loadbang;
#X text 187 25 min;
#X text 317 24 max;
#X obj 117 234 outlet;
#X obj 110 190 expr $f1 * ($f3 - $f2) + $f2;
#X obj 403 127;
#X obj 65 105 + 0;
#X obj 110 97 f \$3;
#X text 100 73 input add;
#X connect 0 0 10 0;
#X connect 1 0 8 1;
#X connect 2 0 8 2;
#X connect 3 0 1 0;
#X connect 3 0 11 0;
#X connect 4 0 2 0;
#X connect 8 0 7 0;
#X connect 10 0 8 0;
#X connect 11 0 10 1;
