#N canvas 1257 440 450 300 12;
#X obj 80 46 inlet;
#X obj 176 103 f \$1;
#X obj 288 98 f \$2;
#X obj 185 53 loadbang;
#X obj 333 43 loadbang;
#X text 187 25 min;
#X text 317 24 max;
#X obj 110 190 expr $f1 * ($f3 - $f2) + $f1;
#X obj 117 234 outlet;
#X connect 0 0 7 0;
#X connect 1 0 7 1;
#X connect 2 0 7 2;
#X connect 3 0 1 0;
#X connect 4 0 2 0;
#X connect 7 0 8 0;
