#N canvas 1588 176 1091 961 12;
#X obj 129 336 fm-alt-1;
#X obj 110 359 *~ 0.25;
#X obj 129 411 dac~;
#X msg 92 175 440;
#X msg 178 178 29;
#X msg 285 193 49;
#X obj 127 54 bng 15 250 50 0 empty empty empty 17 7 0 10 -262144 -1
-1;
#X floatatom 397 131 5 0 0 0 - - -;
#X floatatom 373 234 5 0 0 0 - - -;
#X floatatom 417 279 5 0 0 0 - - -;
#X floatatom 117 226 5 0 0 0 - - -;
#X floatatom 194 218 5 0 0 0 - - -;
#X floatatom 242 229 5 0 0 0 - - -;
#X obj 372 324 / 10;
#X floatatom 240 393 5 0 0 0 - - -;
#X connect 0 0 1 0;
#X connect 0 1 14 0;
#X connect 1 0 2 0;
#X connect 1 0 2 1;
#X connect 3 0 0 0;
#X connect 4 0 0 1;
#X connect 5 0 0 2;
#X connect 6 0 3 0;
#X connect 6 0 4 0;
#X connect 6 0 5 0;
#X connect 7 0 0 3;
#X connect 8 0 0 4;
#X connect 9 0 13 0;
#X connect 10 0 0 0;
#X connect 11 0 0 1;
#X connect 12 0 0 2;
#X connect 13 0 0 5;
