#N canvas 1042 100 1402 842 12;
#X msg 531 256 connect 127.0.0.1 9004;
#X msg 570 334 disconnect;
#X obj 540 371 netsend -u -b;
#X obj 220 250 list prepend send;
#X obj 219 282 list trim;
#X obj 266 404 oscparse;
#X obj 266 428 list trim;
#X obj 265 364 netreceive -u -b 9005;
#X obj 219 218 oscformat /pitch;
#X obj 72 222 oscformat /max;
#X obj 358 212 oscformat /time;
#X obj 557 219 loadbang;
#X obj 266 452 route modulator-freq modulator-amp carrier-freq;
#X obj 211 644 abstractions/fm;
#X obj 367 680 output~;
#X obj 54 602 mtof;
#X obj 527 657 mtof;
#X obj 301 603 mtof;
#X floatatom 347 630 5 0 0 0 - - - 0;
#X floatatom 582 655 5 0 0 0 - - - 0;
#X floatatom 128 630 5 0 0 0 - - - 0;
#X obj 219 113 random 40;
#X obj 250 159 + 30;
#X obj 350 82 random 200;
#X obj 381 127 + 100;
#X obj 63 115 random 100;
#X obj 83 139 / 100;
#X obj 145 14 bng 60 250 50 0 empty empty empty 17 7 0 10 #fcfcfc #000000
#000000;
#X obj 103 179 f;
#X obj 264 191 f;
#X obj 370 164 f;
#X obj 521 7 bng 60 250 50 0 empty empty empty 17 7 0 10 #fcfcfc #000000
#000000;
#X text 32 30 random vals;
#X obj 356 55 bng 15 250 50 0 empty empty empty 17 7 0 10 #fcfcfc #000000
#000000;
#X text 378 26 repeat last vals;
#X obj 50 66 bng 15 250 50 0 empty empty empty 17 7 0 10 #fcfcfc #000000
#000000;
#X obj 237 50 bng 15 250 50 0 empty empty empty 17 7 0 10 #fcfcfc #000000
#000000;
#X obj 53 563 abstractions/lin-scale 50 70 1;
#X obj 287 568 abstractions/lin-scale 10 40 1;
#X obj 529 570 abstractions/lin-scale 50 70 1;
#X connect 0 0 2 0;
#X connect 1 0 2 0;
#X connect 3 0 4 0;
#X connect 4 0 2 0;
#X connect 5 0 6 0;
#X connect 6 0 12 0;
#X connect 7 0 5 0;
#X connect 8 0 3 0;
#X connect 9 0 3 0;
#X connect 10 0 3 0;
#X connect 11 0 0 0;
#X connect 12 0 37 0;
#X connect 12 1 38 0;
#X connect 12 2 39 0;
#X connect 13 0 14 0;
#X connect 15 0 13 1;
#X connect 15 0 20 0;
#X connect 16 0 13 0;
#X connect 16 0 19 0;
#X connect 17 0 13 2;
#X connect 17 0 18 0;
#X connect 21 0 22 0;
#X connect 22 0 29 0;
#X connect 23 0 24 0;
#X connect 24 0 30 0;
#X connect 25 0 26 0;
#X connect 26 0 28 0;
#X connect 27 0 25 0;
#X connect 27 0 21 0;
#X connect 27 0 23 0;
#X connect 28 0 9 0;
#X connect 29 0 8 0;
#X connect 30 0 10 0;
#X connect 31 0 28 0;
#X connect 31 0 22 0;
#X connect 31 0 30 0;
#X connect 33 0 23 0;
#X connect 33 0 29 0;
#X connect 33 0 28 0;
#X connect 35 0 25 0;
#X connect 35 0 29 0;
#X connect 35 0 30 0;
#X connect 36 0 21 0;
#X connect 36 0 28 0;
#X connect 36 0 30 0;
#X connect 37 0 15 0;
#X connect 38 0 17 0;
#X connect 39 0 16 0;
