#N canvas 1666 100 772 608 12;
#X msg 527 109 connect 127.0.0.1 9004;
#X msg 566 187 disconnect;
#X obj 536 224 netsend -u -b;
#X obj 216 103 list prepend send;
#X obj 215 135 list trim;
#X obj 262 257 oscparse;
#X obj 262 281 list trim;
#X obj 261 217 netreceive -u -b 9005;
#X msg 201 46 20;
#X obj 215 71 oscformat /pitch;
#X obj 68 75 oscformat /max;
#X obj 354 65 oscformat /time;
#X msg 60 41 30;
#X msg 359 31 10;
#X obj 206 390 print modulator-freq;
#X obj 371 389 print modulator-amp;
#X obj 532 387 print carrier-freq;
#X obj 553 72 loadbang;
#X obj 262 305 route modulator-freq modulator-amp carrier-freq;
#X connect 0 0 2 0;
#X connect 1 0 2 0;
#X connect 3 0 4 0;
#X connect 4 0 2 0;
#X connect 5 0 6 0;
#X connect 6 0 18 0;
#X connect 7 0 5 0;
#X connect 8 0 9 0;
#X connect 9 0 3 0;
#X connect 10 0 3 0;
#X connect 11 0 3 0;
#X connect 12 0 10 0;
#X connect 13 0 11 0;
#X connect 17 0 0 0;
#X connect 18 0 14 0;
#X connect 18 1 15 0;
#X connect 18 2 16 0;
