#N canvas 1408 286 1196 973 12;
#X obj 114 67 adc~;
#X obj 113 144 bonk~;
#X msg 264 87 thresh 2.5 15;
#X obj 175 181 unpack f f;
#X floatatom 368 262 5 0 0 0 - - -;
#X msg 131 501 connect 127.0.0.1 9004;
#X msg 280 592 disconnect;
#X obj 140 616 netsend -u -b;
#X obj 393 515 oscformat /vel;
#X obj 394 547 list prepend send;
#X obj 393 579 list trim;
#X obj 377 735 oscparse;
#X obj 377 759 list trim;
#X obj 377 783 route freq;
#X obj 321 868 print freq;
#X obj 376 695 netreceive -u -b 9005;
#X obj 398 35 loadbang;
#X obj 703 766 *~ 0.25;
#X obj 698 813 dac~;
#X obj 707 524;
#X floatatom 646 515 5 0 0 0 - - -;
#X obj 742 641 osc~ 440;
#X floatatom 656 650 5 0 0 0 - - -;
#X obj 675 569 * 400;
#X obj 670 610 + 600;
#X connect 0 0 1 0;
#X connect 1 1 3 0;
#X connect 2 0 1 0;
#X connect 3 1 4 0;
#X connect 3 1 8 0;
#X connect 5 0 7 0;
#X connect 6 0 7 0;
#X connect 8 0 9 0;
#X connect 9 0 10 0;
#X connect 10 0 7 0;
#X connect 11 0 12 0;
#X connect 12 0 13 0;
#X connect 13 0 14 0;
#X connect 13 0 20 0;
#X connect 15 0 11 0;
#X connect 16 0 2 0;
#X connect 16 0 5 0;
#X connect 17 0 18 0;
#X connect 17 0 18 1;
#X connect 20 0 23 0;
#X connect 21 0 17 0;
#X connect 22 0 21 0;
#X connect 23 0 24 0;
#X connect 24 0 22 0;
