#N canvas 1475 235 1196 973 12;
#X obj 114 67 adc~;
#X obj 713 181 oscparse;
#X obj 713 205 list trim;
#X obj 712 141 netreceive -u -b 9005;
#X obj 775 450 *~ 0.25;
#X obj 770 497 dac~;
#X obj 544 230 print message;
#N canvas 657 162 729 636 preprocess 0;
#X obj 73 66 inlet~;
#X obj 189 325 bonk~;
#X msg 309 309 thresh 2.5 15;
#X obj 251 362 unpack f f;
#X obj 393 280 loadbang;
#X obj 149 420 timer;
#X obj 152 375 t b b;
#X obj 382 107 inlet;
#X obj 155 208 *~ 0;
#X msg 239 147 1;
#X obj 238 487 pack f f;
#X obj 229 552 outlet;
#X connect 0 0 8 0;
#X connect 1 0 6 0;
#X connect 1 1 3 0;
#X connect 2 0 1 0;
#X connect 3 1 10 1;
#X connect 4 0 2 0;
#X connect 5 0 10 0;
#X connect 6 0 5 0;
#X connect 6 1 5 1;
#X connect 7 0 6 0;
#X connect 7 0 9 0;
#X connect 8 0 1 0;
#X connect 9 0 8 1;
#X connect 10 0 11 0;
#X restore 75 360 pd preprocess;
#N canvas 0 23 1117 734 osc-out 0;
#X msg 70 362 connect 127.0.0.1 9004;
#X msg 298 257 disconnect;
#X obj 79 477 netsend -u -b;
#X obj 333 408 list prepend send;
#X obj 332 440 list trim;
#X obj 472 206 inlet;
#X obj 332 376 oscformat /time /vel;
#X obj 151 185 loadbang;
#X connect 0 0 2 0;
#X connect 1 0 2 0;
#X connect 3 0 4 0;
#X connect 4 0 2 0;
#X connect 5 0 6 0;
#X connect 6 0 3 0;
#X connect 7 0 0 0;
#X restore 74 414 pd osc-out;
#X obj 209 47 bng 60 250 50 0 empty empty START 17 7 0 10 -262144 -1
-1;
#N canvas 0 23 472 606 fm 0;
#X text 35 185 carrier;
#X text 164 174 modulator;
#X obj 205 337 *~;
#X text 330 174 mod index;
#X obj 173 393 +~;
#X obj 168 427 osc~;
#X obj 106 61 route carrier modulator index;
#X obj 200 278 osc~ 100;
#X obj 115 223 line~;
#X msg 114 202 \$1 50;
#X obj 206 221 line~;
#X msg 205 200 \$1 50;
#X obj 341 230 line~;
#X msg 340 209 \$1 50;
#X obj 159 507 outlet~;
#X obj 100 25 inlet;
#X connect 2 0 4 1;
#X connect 4 0 5 0;
#X connect 5 0 14 0;
#X connect 6 0 9 0;
#X connect 6 1 11 0;
#X connect 6 2 13 0;
#X connect 7 0 2 0;
#X connect 8 0 4 0;
#X connect 9 0 8 0;
#X connect 10 0 7 0;
#X connect 11 0 10 0;
#X connect 12 0 2 1;
#X connect 13 0 12 0;
#X connect 15 0 6 0;
#X restore 820 324 pd fm;
#N canvas 0 23 556 483 sine 0;
#X obj 109 55 route freq;
#X floatatom 112 149 5 0 0 0 - - -;
#X floatatom 122 284 5 0 0 0 - - -;
#X obj 141 203 * 400;
#X obj 136 244 + 600;
#X obj 112 331 osc~;
#X obj 103 26 inlet;
#X obj 120 387 outlet~;
#X connect 0 0 1 0;
#X connect 1 0 3 0;
#X connect 2 0 5 0;
#X connect 3 0 4 0;
#X connect 4 0 2 0;
#X connect 5 0 7 0;
#X connect 6 0 0 0;
#X restore 655 320 pd sine;
#X connect 0 0 7 0;
#X connect 1 0 2 0;
#X connect 2 0 6 0;
#X connect 2 0 10 0;
#X connect 2 0 11 0;
#X connect 3 0 1 0;
#X connect 4 0 5 0;
#X connect 4 0 5 1;
#X connect 7 0 8 0;
#X connect 9 0 7 1;
#X connect 10 0 4 0;
