#N canvas 1242 100 1196 973 12;
#X msg 16 23 connect 127.0.0.1 9004;
#X msg 165 114 disconnect;
#X obj 25 138 netsend -u -b;
#X obj 278 37 oscformat /vel;
#X obj 279 69 list prepend send;
#X obj 278 101 list trim;
#X obj 262 257 oscparse;
#X obj 262 281 list trim;
#X obj 262 305 route freq;
#X obj 206 390 print freq;
#X obj 261 217 netreceive -u -b 9005;
#X msg 264 12 20;
#X connect 0 0 2 0;
#X connect 1 0 2 0;
#X connect 3 0 4 0;
#X connect 4 0 5 0;
#X connect 5 0 2 0;
#X connect 6 0 7 0;
#X connect 7 0 8 0;
#X connect 8 0 9 0;
#X connect 10 0 6 0;
#X connect 11 0 3 0;
