#N canvas 1302 281 1196 973 12;
#X obj 114 67 adc~;
#X obj 113 144 bonk~;
#X obj 107 186 bng 15 250 50 0 empty empty empty 17 7 0 10 -262144
-1 -1;
#X msg 264 87 thresh 2.5 15;
#X obj 175 181 unpack f f;
#X floatatom 185 333 5 0 0 0 - - -;
#X obj 90 281 timer;
#X obj 39 28 bng 60 250 50 0 empty empty START 17 7 0 10 -262144 -1
-1;
#X obj 94 216 t b b;
#X floatatom 95 330 5 0 0 0 - - -;
#X obj 112 385 pack f f;
#X msg 428 237 write test_text.txt;
#X obj 319 397 text insert test_text;
#X obj 384 209 text delete test_text;
#X msg 424 109 -1;
#X obj 387 356 text define test_text;
#X connect 0 0 1 0;
#X connect 1 0 2 0;
#X connect 1 1 4 0;
#X connect 2 0 8 0;
#X connect 3 0 1 0;
#X connect 4 1 5 0;
#X connect 5 0 10 1;
#X connect 6 0 9 0;
#X connect 7 0 6 0;
#X connect 7 0 14 0;
#X connect 8 0 6 0;
#X connect 8 1 6 1;
#X connect 9 0 10 0;
#X connect 10 0 12 0;
#X connect 11 0 15 0;
#X connect 14 0 13 0;
