#N canvas 1302 281 1196 973 12;
#X declare -lib timbreID/timbreIDLib;
#X obj 114 67 adc~;
#X obj 90 281 timer;
#X obj 39 28 bng 60 250 50 0 empty empty START 17 7 0 10 #fcfcfc #000000
#000000;
#X obj 94 216 t b b;
#X floatatom 95 330 5 0 0 0 - - - 0;
#X obj 112 385 pack f f;
#X obj 196 492 text insert test_text;
#X obj 384 209 text delete test_text;
#X msg 424 109 -1;
#X obj 387 356 text define test_text;
#X msg 264 87 thresh 2.5 30;
#X obj 750 278 fiddle~, f 38;
#X obj 844 414 f;
#X floatatom 846 489 5 0 0 0 - - - 0;
#X obj 564 736 declare -lib timbreID/timbreIDLib;
#X msg 173 58 debounce 100;
#X obj 124 159 t b b;
#X obj 117 125 bark~ 2048 128 0.5;
#X msg 519 71 mask 4 0.75;
#X msg 428 237 write dataset.txt;
#X connect 0 1 11 0;
#X connect 0 1 17 0;
#X connect 1 0 4 0;
#X connect 2 0 1 0;
#X connect 2 0 8 0;
#X connect 3 0 1 0;
#X connect 3 1 1 1;
#X connect 4 0 5 0;
#X connect 5 0 6 0;
#X connect 8 0 7 0;
#X connect 10 0 17 0;
#X connect 11 3 12 1;
#X connect 12 0 13 0;
#X connect 12 0 5 1;
#X connect 15 0 17 0;
#X connect 16 0 3 0;
#X connect 16 1 12 0;
#X connect 17 1 16 0;
#X connect 18 0 17 0;
#X connect 19 0 9 0;
